<?xml version="1.0" encoding="utf-8"?>
<!-- Generator: Adobe Illustrator 20.1.0, SVG Export Plug-In . SVG Version: 6.00 Build 0)  -->
<svg version="1.1" id="Ebene_1" xmlns="http://www.w3.org/2000/svg" xmlns:xlink="http://www.w3.org/1999/xlink" x="0px" y="0px"
	 viewBox="0 0 100 100" style="enable-background:new 0 0 100 100;" xml:space="preserve">
<g id="_x31_2x12_2_">
	<path style="fill:#888888;" d="M70.483,34.338C68.04,27.392,64.08,21.15,58.751,15.822c-2.159-2.245-5.873-2.443-8.49-0.437
		c-1.341,1.062-2.152,2.601-2.23,4.221c-0.07,1.544,0.51,2.991,1.587,4.023c4.141,4.191,7.229,9.082,9.17,14.519
		c2.27,6.516,2.687,13.502,1.203,20.199c-1.461,6.634-4.686,13.025-9.313,18.474c-1.075,1.253-1.557,2.865-1.323,4.424
		c0.231,1.544,1.15,2.928,2.596,3.839c1.012,0.593,2.182,0.917,3.3,0.917c1.913,0,3.721-0.804,4.999-2.247
		c5.929-7.018,9.996-15.106,11.757-23.378C73.926,51.606,73.398,42.602,70.483,34.338z"/>
	<path style="fill:#888888;" d="M48.07,38.541c-2.197-5.404-5.675-10.147-10.295-14.069c-2.227-1.974-5.984-2.089-8.575-0.249
		c-1.426,1.047-2.278,2.569-2.335,4.176c-0.055,1.517,0.613,2.981,1.836,4.023c3.39,2.87,5.861,6.23,7.345,9.989
		c3.39,8.593,1.075,18.203-6.2,25.713c-1.155,1.2-1.687,2.767-1.461,4.299c0.231,1.562,1.223,2.94,2.767,3.809
		c1.077,0.578,2.212,0.871,3.377,0.871c1.886,0,3.711-0.743,5.04-2.074C49.764,64.448,52.943,50.815,48.07,38.541z"/>
</g>
</svg>
